<svg xmlns="http://www.w3.org/2000/svg" width="1200" height="630" viewBox="0 0 1200 630" role="img" aria-labelledby="title desc">
  <title id="title">Axel Eckenberg — Fullstack &amp; SRE</title>
  <desc id="desc">Social preview image for Axel Eckenberg's portfolio.</desc>
  <rect width="1200" height="630" fill="#060504"/>
  <path d="M0 0h1200v630H0z" fill="url(#glow)"/>
  <g opacity=".26">
    <path d="M0 105h1200M0 210h1200M0 315h1200M0 420h1200M0 525h1200M150 0v630M300 0v630M450 0v630M600 0v630M750 0v630M900 0v630M1050 0v630" stroke="#4ade80" stroke-width="1"/>
  </g>
  <g transform="translate(96 118)">
    <rect x="0" y="0" width="88" height="88" rx="22" fill="#0c0a09" stroke="#22c55e" stroke-width="2"/>
    <g transform="translate(44 44)" fill="none" stroke="#4ade80" stroke-linecap="round" stroke-linejoin="round">
      <path d="M0-28 24.2-14v28L0 28-24.2 14v-28Z" stroke-width="4"/>
      <circle r="10" stroke-width="4"/>
      <path d="M0-18v8M15.6-9l-6.9 4M15.6 9l-6.9-4M0 18v-8M-15.6 9l6.9-4M-15.6-9l6.9 4" stroke-width="3.5"/>
    </g>
    <text x="0" y="178" fill="#f5f5f4" font-family="Inter, system-ui, sans-serif" font-size="82" font-weight="700">Axel Eckenberg</text>
    <text x="4" y="250" fill="#4ade80" font-family="JetBrains Mono, ui-monospace, monospace" font-size="34">Fullstack · SRE</text>
    <text x="4" y="332" fill="#d6d3d1" font-family="Inter, system-ui, sans-serif" font-size="34">Vue · NestJS · Kubernetes · Observability</text>
  </g>
  <defs>
    <radialGradient id="glow" cx="0" cy="0" r="1" gradientUnits="userSpaceOnUse" gradientTransform="translate(960 60) rotate(132) scale(760 520)">
      <stop stop-color="#22c55e" stop-opacity=".24"/>
      <stop offset=".55" stop-color="#22c55e" stop-opacity=".06"/>
      <stop offset="1" stop-color="#060504" stop-opacity="0"/>
    </radialGradient>
  </defs>
</svg>
